<mxfile host="65bd71144e" modified="2020-11-04T16:20:16.239Z" agent="5.0 (Windows NT 10.0; Win64; x64) AppleWebKit/537.36 (KHTML, like Gecko) Code/1.50.1 Chrome/83.0.4103.122 Electron/9.2.1 Safari/537.36" etag="f193EXYktWNR0W-4sYqy" version="13.6.5">
    <diagram id="UGgqBbXCINzURfmvxQfG" name="Page-1">
        <mxGraphModel dx="44" dy="41" grid="1" gridSize="10" guides="1" tooltips="1" connect="1" arrows="1" fold="1" page="1" pageScale="1" pageWidth="827" pageHeight="1169" math="0" shadow="0">
            <root>
                <mxCell id="0"/>
                <mxCell id="1" parent="0"/>
                <mxCell id="Ku1PNWVY-iLV4aGeplBr-20" value="" style="rounded=1;whiteSpace=wrap;html=1;fillColor=#ffffff;" parent="1" vertex="1">
                    <mxGeometry x="520" y="270" width="220" height="140" as="geometry"/>
                </mxCell>
                <mxCell id="Ku1PNWVY-iLV4aGeplBr-18" value="" style="rounded=1;whiteSpace=wrap;html=1;fillColor=none;" parent="1" vertex="1">
                    <mxGeometry x="20" y="60" width="750" height="370" as="geometry"/>
                </mxCell>
                <mxCell id="Ku1PNWVY-iLV4aGeplBr-1" value="" style="rounded=1;whiteSpace=wrap;html=1;" parent="1" vertex="1">
                    <mxGeometry x="40" y="230" width="290" height="160" as="geometry"/>
                </mxCell>
                <mxCell id="Ku1PNWVY-iLV4aGeplBr-4" value="&quot;/api&quot;, &quot;/socket&quot;&lt;br&gt;request" style="shape=process;whiteSpace=wrap;html=1;backgroundOutline=1;" parent="1" vertex="1">
                    <mxGeometry x="230" y="280" width="88.29" height="40" as="geometry"/>
                </mxCell>
                <mxCell id="Ku1PNWVY-iLV4aGeplBr-6" value="" style="shape=cylinder;whiteSpace=wrap;html=1;boundedLbl=1;backgroundOutline=1;" parent="1" vertex="1">
                    <mxGeometry x="660" y="290" width="60" height="80" as="geometry"/>
                </mxCell>
                <mxCell id="Ku1PNWVY-iLV4aGeplBr-7" value="&quot;/&quot;&lt;br&gt;request" style="shape=process;whiteSpace=wrap;html=1;backgroundOutline=1;" parent="1" vertex="1">
                    <mxGeometry x="140" y="280" width="80" height="40" as="geometry"/>
                </mxCell>
                <mxCell id="Ku1PNWVY-iLV4aGeplBr-8" value="" style="shape=actor;whiteSpace=wrap;html=1;" parent="1" vertex="1">
                    <mxGeometry x="394" y="500" width="40" height="60" as="geometry"/>
                </mxCell>
                <mxCell id="Ku1PNWVY-iLV4aGeplBr-9" value="" style="endArrow=classic;html=1;entryX=0.5;entryY=0;entryDx=0;entryDy=0;" parent="1" target="Ku1PNWVY-iLV4aGeplBr-7" edge="1">
                    <mxGeometry width="50" height="50" relative="1" as="geometry">
                        <mxPoint x="420" y="480" as="sourcePoint"/>
                        <mxPoint x="440" y="300" as="targetPoint"/>
                        <Array as="points">
                            <mxPoint x="420" y="240"/>
                            <mxPoint x="180" y="240"/>
                        </Array>
                    </mxGeometry>
                </mxCell>
                <mxCell id="Ku1PNWVY-iLV4aGeplBr-10" value="" style="endArrow=classic;html=1;entryX=0.5;entryY=0;entryDx=0;entryDy=0;" parent="1" target="Ku1PNWVY-iLV4aGeplBr-4" edge="1">
                    <mxGeometry width="50" height="50" relative="1" as="geometry">
                        <mxPoint x="410" y="480" as="sourcePoint"/>
                        <mxPoint x="440" y="300" as="targetPoint"/>
                        <Array as="points">
                            <mxPoint x="410" y="260"/>
                            <mxPoint x="274" y="260"/>
                        </Array>
                    </mxGeometry>
                </mxCell>
                <mxCell id="Ku1PNWVY-iLV4aGeplBr-11" value="" style="endArrow=classic;html=1;exitX=0;exitY=0.5;exitDx=0;exitDy=0;entryX=0;entryY=0.75;entryDx=0;entryDy=0;" parent="1" source="Ku1PNWVY-iLV4aGeplBr-7" target="Ku1PNWVY-iLV4aGeplBr-8" edge="1">
                    <mxGeometry width="50" height="50" relative="1" as="geometry">
                        <mxPoint x="390" y="350" as="sourcePoint"/>
                        <mxPoint x="440" y="300" as="targetPoint"/>
                        <Array as="points">
                            <mxPoint x="120" y="300"/>
                            <mxPoint x="120" y="545"/>
                        </Array>
                    </mxGeometry>
                </mxCell>
                <mxCell id="Ku1PNWVY-iLV4aGeplBr-12" value="" style="rounded=1;whiteSpace=wrap;html=1;" parent="1" vertex="1">
                    <mxGeometry x="394" y="100" width="206" height="90" as="geometry"/>
                </mxCell>
                <mxCell id="Ku1PNWVY-iLV4aGeplBr-13" value="" style="endArrow=classic;html=1;exitX=1;exitY=0.75;exitDx=0;exitDy=0;entryX=0;entryY=0.5;entryDx=0;entryDy=0;" parent="1" source="Ku1PNWVY-iLV4aGeplBr-4" target="Ku1PNWVY-iLV4aGeplBr-12" edge="1">
                    <mxGeometry width="50" height="50" relative="1" as="geometry">
                        <mxPoint x="390" y="350" as="sourcePoint"/>
                        <mxPoint x="440" y="300" as="targetPoint"/>
                        <Array as="points">
                            <mxPoint x="370" y="310"/>
                            <mxPoint x="370" y="145"/>
                        </Array>
                    </mxGeometry>
                </mxCell>
                <mxCell id="Ku1PNWVY-iLV4aGeplBr-19" value="" style="endArrow=classic;startArrow=classic;html=1;entryX=1;entryY=0.5;entryDx=0;entryDy=0;exitX=0;exitY=0.5;exitDx=0;exitDy=0;" parent="1" source="Ku1PNWVY-iLV4aGeplBr-6" target="Ku1PNWVY-iLV4aGeplBr-12" edge="1">
                    <mxGeometry width="50" height="50" relative="1" as="geometry">
                        <mxPoint x="430" y="230" as="sourcePoint"/>
                        <mxPoint x="480" y="180" as="targetPoint"/>
                        <Array as="points">
                            <mxPoint x="640" y="330"/>
                            <mxPoint x="640" y="145"/>
                        </Array>
                    </mxGeometry>
                </mxCell>
                <mxCell id="Ku1PNWVY-iLV4aGeplBr-23" value=":27017" style="text;html=1;strokeColor=none;fillColor=none;align=center;verticalAlign=middle;whiteSpace=wrap;rounded=0;" parent="1" vertex="1">
                    <mxGeometry x="641.99" y="250" width="40" height="20" as="geometry"/>
                </mxCell>
                <mxCell id="Ku1PNWVY-iLV4aGeplBr-24" value=":8080" style="text;html=1;strokeColor=none;fillColor=none;align=center;verticalAlign=middle;whiteSpace=wrap;rounded=0;" parent="1" vertex="1">
                    <mxGeometry x="354" y="120" width="40" height="20" as="geometry"/>
                </mxCell>
                <mxCell id="Ku1PNWVY-iLV4aGeplBr-25" value=":80" style="text;html=1;strokeColor=none;fillColor=none;align=center;verticalAlign=middle;whiteSpace=wrap;rounded=0;" parent="1" vertex="1">
                    <mxGeometry x="320" y="240" width="40" height="20" as="geometry"/>
                </mxCell>
                <mxCell id="Ku1PNWVY-iLV4aGeplBr-26" value="${HOST_PORT}" style="text;html=1;strokeColor=none;fillColor=none;align=center;verticalAlign=middle;whiteSpace=wrap;rounded=0;" parent="1" vertex="1">
                    <mxGeometry x="420" y="430" width="110" height="20" as="geometry"/>
                </mxCell>
                <mxCell id="7" value="REVERSE PROXY" style="shape=ext;double=1;rounded=0;whiteSpace=wrap;html=1;" vertex="1" parent="1">
                    <mxGeometry x="140" y="330" width="160" height="50" as="geometry"/>
                </mxCell>
                <mxCell id="8" value="FRONTEND&lt;br&gt;STATIC FILES" style="shape=ext;double=1;rounded=0;whiteSpace=wrap;html=1;" vertex="1" parent="1">
                    <mxGeometry x="50" y="240" width="80" height="50" as="geometry"/>
                </mxCell>
                <mxCell id="9" value="HOST/CONTAINER PLATFORM" style="shape=ext;double=1;rounded=0;whiteSpace=wrap;html=1;" vertex="1" parent="1">
                    <mxGeometry x="40" y="90" width="240" height="42" as="geometry"/>
                </mxCell>
                <mxCell id="10" value="BACKEND TECHNOLOGIES" style="shape=ext;double=1;rounded=0;whiteSpace=wrap;html=1;" vertex="1" parent="1">
                    <mxGeometry x="470" y="110" width="120" height="40" as="geometry"/>
                </mxCell>
                <mxCell id="14" value="REST API" style="ellipse;whiteSpace=wrap;html=1;" vertex="1" parent="1">
                    <mxGeometry x="400" y="110" width="60" height="30" as="geometry"/>
                </mxCell>
                <mxCell id="15" value="SOCKET API" style="ellipse;whiteSpace=wrap;html=1;" vertex="1" parent="1">
                    <mxGeometry x="400" y="150" width="60" height="30" as="geometry"/>
                </mxCell>
                <mxCell id="16" value="DATABASE" style="shape=ext;double=1;rounded=0;whiteSpace=wrap;html=1;" vertex="1" parent="1">
                    <mxGeometry x="530" y="310" width="100" height="60" as="geometry"/>
                </mxCell>
                <mxCell id="17" value="" style="endArrow=classic;html=1;exitX=0.5;exitY=1;exitDx=0;exitDy=0;" edge="1" parent="1" source="8">
                    <mxGeometry width="50" height="50" relative="1" as="geometry">
                        <mxPoint x="360" y="320" as="sourcePoint"/>
                        <mxPoint x="120" y="330" as="targetPoint"/>
                    </mxGeometry>
                </mxCell>
                <mxCell id="18" value=":80" style="text;html=1;strokeColor=none;fillColor=none;align=center;verticalAlign=middle;whiteSpace=wrap;rounded=0;" vertex="1" parent="1">
                    <mxGeometry x="320.29" y="220" width="40" height="20" as="geometry"/>
                </mxCell>
            </root>
        </mxGraphModel>
    </diagram>
</mxfile>
